<svg xmlns="http://www.w3.org/2000/svg" viewBox="0 0 100 100">
  <defs>
    <style>
      .cls-1 {
        fill: #fff;
      }
    </style>
  </defs>
  <g id="save_for_later" transform="translate(-673 -564)">
    <g id="save-button" transform="translate(673 564)">
      <g id="save">
        <path id="Path_1" data-name="Path 1" class="cls-1" d="M77.778,0H11.111A11.144,11.144,0,0,0,0,11.111V88.889A11.144,11.144,0,0,0,11.111,100H88.889A11.144,11.144,0,0,0,100,88.889V22.222ZM50,88.889a16.667,16.667,0,0,1,0-33.333,16.667,16.667,0,1,1,0,33.333ZM66.667,33.333H11.111V11.111H66.667Z"/>
      </g>
    </g>
    <g id="wall-clock" transform="translate(707.858 621.625)">
      <g id="Group_2" data-name="Group 2" transform="translate(0 0)">
        <g id="Group_1" data-name="Group 1">
          <path id="Path_2" data-name="Path 2" class="cls-1" d="M416.422,376.953a1.145,1.145,0,0,0-1.6.235c-.208.279-.43.553-.66.813a1.145,1.145,0,1,0,1.715,1.516c.273-.309.536-.633.782-.963A1.145,1.145,0,0,0,416.422,376.953Z" transform="translate(-390.186 -355.166)"/>
          <path id="Path_3" data-name="Path 3" class="cls-1" d="M464.194,286.451a1.145,1.145,0,0,0-1.362.875c-.074.34-.163.68-.266,1.012a1.145,1.145,0,1,0,2.187.676c.122-.394.228-.8.316-1.2A1.145,1.145,0,0,0,464.194,286.451Z" transform="translate(-436.045 -270.032)"/>
          <path id="Path_4" data-name="Path 4" class="cls-1" d="M335.635,442.339c-.3.17-.619.328-.935.471a1.145,1.145,0,1,0,.942,2.086c.376-.17.749-.358,1.109-.559a1.145,1.145,0,0,0-1.116-2Z" transform="translate(-314.909 -416.886)"/>
          <path id="Path_5" data-name="Path 5" class="cls-1" d="M161.336,77.145v8.683l-4.2,4.2a1.145,1.145,0,0,0,1.619,1.619l4.533-4.533a1.145,1.145,0,0,0,.335-.809V77.145a1.145,1.145,0,0,0-2.289,0Z" transform="translate(-147.829 -71.65)"/>
          <path id="Path_6" data-name="Path 6" class="cls-1" d="M28.158,2.461a1.145,1.145,0,0,0-1.145,1.145V6.784A14.652,14.652,0,1,0,14.651,29.3h.057c.413,0,.829-.017,1.238-.052a1.145,1.145,0,1,0-.191-2.281c-.346.029-.7.044-1.047.044h-.057A12.362,12.362,0,1,1,25.293,8.356H22.146a1.145,1.145,0,0,0,0,2.289H25.64a3.641,3.641,0,0,0,1.9-.535,1.143,1.143,0,0,0,.1-.066A3.662,3.662,0,0,0,29.3,6.982V3.606A1.145,1.145,0,0,0,28.158,2.461Z" transform="translate(0 0)"/>
        </g>
      </g>
    </g>
  </g>
</svg>
